<?xml version="1.0" encoding="UTF-8"?>
<svg id="Layer_1" xmlns="http://www.w3.org/2000/svg" version="1.1" viewBox="0 0 64 64">
  <!-- Generator: Adobe Illustrator 30.0.0, SVG Export Plug-In . SVG Version: 2.1.1 Build 123)  -->
  <defs>
    <style>
      .st0 {
        fill: #fff;
      }

      .st1 {
        fill: #fcf8ff;
      }
    </style>
  </defs>
  <g id="OnnX1m">
    <g>
      <path class="st0" d="M58.34,24.79c-1.08-1.06-2.88-1.43-4.32-1.69-5.18-.93-10.8-.97-16.04-1.49-2.7-1.17-1.64-3.56-2.01-5.78-.74-4.46-7.4-5.31-8.98-1.34-.91,2.27.51,5.48-2.06,7.03-5.46.84-11.48.59-16.88,1.63-2.85.55-5.09,1.78-5.44,4.95-.29,2.61-.35,11.75.14,14.14,1.03,4.95,5.59,6.41,10.08,6.15,4.49-.26,9.31-1.16,13.95-1.31,8.06-.27,15.25.9,23.07,1.31,4.37.23,8.9-1.25,9.82-6.08.7-3.66.45-10.36.29-14.16-.04-.88-1-2.74-1.62-3.35h0Z"/>
      <path d="M58.34,24.79c.62.61,1.58,2.47,1.62,3.35.17,3.8.41,10.51-.29,14.16-.92,4.83-5.45,6.31-9.82,6.08-7.83-.41-15.02-1.58-23.07-1.31-4.64.15-9.42,1.05-13.95,1.31s-9.05-1.2-10.08-6.15c-.5-2.39-.44-11.53-.14-14.14.35-3.16,2.6-4.4,5.44-4.95,5.4-1.04,11.42-.79,16.88-1.63,2.57-1.55,1.16-4.76,2.06-7.03,1.58-3.96,8.24-3.11,8.98,1.34.37,2.22-.69,4.61,2.01,5.78,5.25.52,10.87.56,16.04,1.49,1.44.26,3.24.63,4.32,1.69h0Z"/>
    </g>
  </g>
  <path class="st1" d="M37.02,24.3c4.55.23,9.4.45,13.88,1.22,1.25.22,2.81.52,3.74,1.39.54.5,1.37,2.03,1.4,2.75.14,3.13.36,8.64-.25,11.64-.8,3.96-4.72,5.18-8.5,4.99-6.77-.34-12.99-1.3-19.96-1.08-4.01.13-8.19.87-12.07,1.08-3.88.21-7.83-.98-8.72-5.05-.42-1.97-.37-9.47-.12-11.62.31-2.6,2.25-3.62,4.71-4.07,4.66-.86,9.84-1.01,14.6-1.34l11.29.09Z"/>
  <circle class="st1" cx="31.21" cy="17.52" r="1.98"/>
</svg>