<?xml version="1.0" encoding="UTF-8"?>
<svg id="Layer_1" xmlns="http://www.w3.org/2000/svg" version="1.1" viewBox="0 0 64 64">
  <!-- Generator: Adobe Illustrator 30.0.0, SVG Export Plug-In . SVG Version: 2.1.1 Build 123)  -->
  <defs>
    <style>
      .st0 {
        stroke-width: 1.01px;
      }

      .st0, .st1, .st2, .st3, .st4, .st5, .st6, .st7 {
        stroke: #3f3f3f;
      }

      .st0, .st1, .st2, .st3, .st4, .st5, .st6, .st7, .st8 {
        fill: #3f3f3f;
      }

      .st1 {
        stroke-width: 1.01px;
      }

      .st9 {
        stroke-width: .37px;
      }

      .st9, .st10, .st11, .st12, .st13, .st14, .st15, .st16, .st17, .st18, .st19, .st20, .st21, .st8 {
        stroke: #000;
      }

      .st9, .st10, .st11, .st12, .st13, .st14, .st15, .st16, .st18, .st20, .st21 {
        fill-rule: evenodd;
      }

      .st9, .st10, .st11, .st12, .st13, .st14, .st15, .st16, .st20, .st21 {
        fill: #878489;
      }

      .st9, .st5 {
        stroke-miterlimit: 1;
      }

      .st10 {
        stroke-width: .37px;
      }

      .st10, .st11, .st13, .st15, .st17, .st22, .st23, .st24, .st18, .st25 {
        stroke-miterlimit: 1;
      }

      .st11 {
        stroke-width: .37px;
      }

      .st12 {
        stroke-width: .37px;
      }

      .st12, .st3 {
        stroke-miterlimit: 1;
      }

      .st13 {
        stroke-width: .37px;
      }

      .st14 {
        stroke-width: .37px;
      }

      .st14, .st4 {
        stroke-miterlimit: 1;
      }

      .st15 {
        stroke-width: .37px;
      }

      .st16 {
        stroke-width: .37px;
      }

      .st16, .st2 {
        stroke-miterlimit: 1;
      }

      .st2 {
        stroke-width: .25px;
      }

      .st3 {
        stroke-width: .25px;
      }

      .st4 {
        stroke-width: .25px;
      }

      .st5 {
        stroke-width: .25px;
      }

      .st17, .st24, .st18 {
        stroke-width: .37px;
      }

      .st17, .st19 {
        fill: none;
      }

      .st22 {
        stroke-width: .26px;
      }

      .st22, .st23, .st24, .st18, .st25 {
        fill: #b3b3b3;
      }

      .st22, .st23, .st24, .st25 {
        stroke: #b3b3b3;
      }

      .st6 {
        stroke-width: .25px;
      }

      .st6, .st7, .st19, .st20, .st21 {
        stroke-miterlimit: 10;
      }

      .st7 {
        stroke-width: .25px;
      }

      .st23 {
        stroke-width: .19px;
      }

      .st19 {
        stroke-width: .37px;
      }

      .st20 {
        stroke-width: .37px;
      }

      .st21 {
        stroke-width: .37px;
      }

      .st25 {
        stroke-width: .07px;
      }

      .st8 {
        stroke-width: 1.49px;
      }
    </style>
  </defs>
  <g id="layer5">
    <g id="g6071">
      <g id="g5949">
        <g id="g5909">
          <path id="path5628" class="st17" d="M56.01,17.69l-.86-1.33c-2.42,1.68-5.4-1.48-2.89-3.77"/>
          <path id="path5630" class="st17" d="M52,12.6l-1.15-1.08c-1.94,2.21-5.59-.14-3.71-2.96"/>
          <path id="path5632" class="st17" d="M47.07,8.66l-1.44-.65c-1.12,2.72-5.21,1.35-4.34-1.93"/>
          <path id="path5893" class="st17" d="M58.4,23.54l-.46-1.51c-2.78.96-4.79-2.89-1.76-4.41"/>
          <path id="path5895" class="st17" d="M59.39,29.8l-.14-1.58c-2.92.36-4.09-3.82-.81-4.68"/>
          <path id="path5897" class="st17" d="M58.89,36.12l.25-1.56c-2.92-.36-3.03-4.7.36-4.74"/>
          <path id="path5899" class="st17" d="M56.74,41.86l.67-1.43c-2.71-1.16-1.61-5.36,1.66-4.45"/>
          <path id="path5901" class="st17" d="M53.28,46.99l.98-1.24c-2.37-1.75-.32-5.59,2.64-3.95"/>
          <path id="path5903" class="st17" d="M43.78,53.96l1.42-.69c-1.38-2.6,2.03-5.04,3.93-2.37"/>
          <path id="path5905" class="st17" d="M37.87,55.59l1.56-.28c-.63-2.71,3.32-4.21,4.45-1.23"/>
          <path id="path5907" class="st17" d="M48.92,50.99l1.23-1c-1.94-2.21.74-5.34,3.29-3.1"/>
        </g>
        <path id="path5945" class="st25" d="M33.18,55.87c-8.26-.69-15.74-4.91-20.4-11.26-2.56-4.07-4.1-8.72-4.21-13.66-.13-5.52,1.4-10.53,4.55-14.94,1.56-2.18,3.63-4.27,5.84-5.89,3.18-2.33,6.97-3.95,10.71-4.59,3.47-.6,7.57-.39,11.01.57l.37.1-.06.36c-.08.47.03,1.15.26,1.64.57,1.21,2.13,1.8,3.32,1.26.37-.17.91-.66,1.08-.98l.1-.19.5.23c.28.13.51.23.52.23s-.06.18-.15.41c-.22.55-.23,1.29-.02,1.84.41,1.06,1.72,1.78,2.83,1.56.51-.1.77-.21,1.14-.5l.31-.24.47.45.47.45-.18.28c-.39.58-.48.86-.48,1.53,0,.56.02.67.19,1.02.42.86,1.27,1.42,2.24,1.47.52.03,1.13-.09,1.3-.26.13-.12.22-.05.52.41l.31.46-.18.14c-.65.49-1.01,1.13-1.06,1.85-.09,1.47,1.04,2.73,2.48,2.76.27,0,.57-.01.66-.04.16-.04.17-.03.31.43.08.26.16.53.18.59.03.07.01.11-.04.11-.17,0-.78.37-1.08.65-.18.17-.38.46-.51.72-.18.39-.21.5-.2.99.01.9.42,1.7,1.11,2.18.32.22,1,.45,1.37.45h.28l.04.34c.02.19.04.45.04.58,0,.23,0,.23-.38.32-1.2.28-1.92,1.12-1.97,2.31-.06,1.16.47,2.05,1.51,2.53.19.09.41.16.47.16.11,0,.12.04.08.38-.07.64-.04.61-.65.6-.9,0-1.64.37-2.08,1.05-.59.93-.56,2.21.09,3.03.21.27.69.69.85.74.05.02,0,.18-.15.5-.17.36-.25.46-.33.43-1.24-.52-2.65-.03-3.23,1.11-.21.42-.34,1.03-.3,1.47.04.49.32,1.14.67,1.52l.25.27-.28.36c-.15.2-.3.35-.32.34-.02-.01-.27-.14-.56-.28-.46-.23-.59-.27-1.05-.28-.61-.03-1.07.11-1.53.45-.54.4-.94,1.22-.94,1.94,0,.39.2,1.08.39,1.37.07.11.13.21.13.24,0,.02-.15.16-.33.32l-.33.28-.33-.31c-.18-.17-.5-.39-.7-.48-.32-.15-.46-.18-.97-.17-.5,0-.65.03-.97.18-.52.24-.98.69-1.24,1.22-.2.41-.22.49-.22,1.07,0,.44.03.7.11.87l.11.25-.51.26-.51.26-.12-.22c-.07-.12-.23-.33-.36-.46-.78-.79-1.86-.96-2.88-.45-.85.42-1.32,1.13-1.39,2.09l-.04.53-.46.08c-.25.05-.55.1-.67.12-.17.03-.2.06-.17.17.02.07,0,.13-.03.13s-.48.04-.98.09c-.97.1-2.82.16-3.64.13h0Z"/>
      </g>
      <path id="path3120" class="st18" d="M40.89,8.76c-.9,2.74-4.98,1.63-4.83-1.15l-1.74-.07c-.16,2.96-4.1,3-4.6.39l-1.77.43c.49,2.68-3.3,4.04-4.27,1.54l-1.61.85c.98,2.44-1.65,4.68-3.75,2.73l-.92.89c1.83,2.13-.86,4.94-3.01,3.57l-.92,1.71c2.48,1.75.38,4.97-1.81,4.4l-.49,1.64c2.65.5,2.31,4.55-.49,4.71l.1,1.38c2.4-.12,3.05,4.06.73,4.69l.36,1.18c2.13-.64,3.52,3.05,1.72,3.86l.62,1.31c1.93-1.04,4.18,1.34,2.54,3.34l.82.83c2.04-1.8,4.45,1.11,3.33,2.77l1.12.68c1.62-2.46,4.22-.54,3.49,1.64l1.5.53c.89-2.49,4.9-1.53,4.46.98l1.54.14c.2-2.69,4.36-3.02,4.59-.32l1.23-.24c-.46-2.52,2.99-3.83,4.23-1.38l1.56-.76c-1.12-2.55,2.25-4.35,3.67-2.34l1.18-1.04c-1.84-2.28.96-5.21,2.87-3.29l1.11-1.48c-2.49-2.05-.36-4.69,1.93-3.8l.44-1.41c-2.49-.88-2.28-5.02,1.16-4.45l-.03-1.41c-3.09-.32-3.43-4.16-.19-4.5l-.28-1.52c-3.48.4-4.07-3.63-1.46-4.36l-.57-1.29c-2.64,1.19-5.25-1.82-2.52-3.89l-.79-.87c-2.69,1.85-5.16-.98-3.38-3.18l-1.27-.94c-1.78,2.51-5.24.72-4.04-2.12l-1.54-.39Z"/>
      <path id="path3647" class="st18" d="M37.09,9.8l-1.71-.18c-.5,3.6-4.14,2.98-4.61.09l-1.67.44c.77,2.84-3.22,4.58-4.52,1.45l-1.49.88c1.56,2.52-1.8,5.61-3.86,2.68l-1.05,1.1c2.29,2.27,0,5.2-2.77,3.47l-.92,1.67c3,1.48,1.49,4.91-1.54,4.04l-.31,1.71c2.87.49,2.54,4.36-.31,4.52l.18,1.84c2.86-.58,4.19,3.43,1.01,4.44l.48,1.45c3.15-1.19,4.35,2.37,2.24,3.82l.88,1.23c2.55-1.98,4.7.89,3.21,3.07l1.1.79c1.25-2.22,4.89-.69,3.86,2.06l1.3.67c1.2-2.66,5-2.08,4.63.96l1.67.13c.24-2.8,3.9-3.41,4.67-.31l1.61-.34c-.75-2.93,3.06-4.46,4.31-1.74l1.31-.77c-1.15-2.28,1.36-4.83,3.6-2.77l1.13-1.12c-1.88-2.32.22-5.26,2.73-3.72l.8-1.51c-2.62-1.21-1.81-5.01,1.49-4.03l.32-1.63c-3.43-.49-3.14-4.5.16-4.43l-.2-1.27c-3.45.17-4.01-3.51-.98-4.44l-.43-1.28c-2.93,1.04-4.69-1.42-1.9-3.59l-.83-1.32c-2.85,2.21-5.01-.7-2.77-2.94l-1.49-.9c-1.81,2.45-4.84.09-3.77-2.28l-1.2-.73c-.95,2.78-5.08,2.06-4.35-1.23h0Z"/>
      <g id="g4940">
        <path id="path4368" class="st24" d="M33.27,49.5c-.09-.9-.73-1.74-1.53-2.02-.5-.17-1.43-.18-1.86-.02-.57.21-1.1.67-1.37,1.19l-.27.51-.52-.15c-.5-.15-.52-.17-.47-.43.24-1.42-.5-2.67-1.8-3.02-.86-.23-1.93.04-2.52.65-.15.16-.32.29-.37.29-.05,0-.29-.14-.53-.32l-.44-.32.29-.56c.68-1.32.14-2.85-1.22-3.47-.59-.27-1.58-.27-2.12,0l-.39.2-.31-.45-.31-.45.43-.46c.78-.83.93-1.88.42-2.89-.46-.91-1.35-1.42-2.41-1.39l-.65.02-.15-.5c-.08-.28-.14-.53-.12-.56.02-.03.2-.11.41-.18.94-.31,1.58-1.26,1.58-2.32,0-1.29-.89-2.37-2.12-2.56l-.39-.06v-1.28h.35c1.1,0,2.1-.72,2.39-1.73.31-1.08-.03-2.24-.85-2.86-.23-.18-.47-.34-.52-.35-.05-.02,0-.25.11-.52.11-.27.25-.47.31-.45.06.02.34.09.64.15,2.23.46,3.82-2.06,2.52-4l-.32-.47.3-.32.3-.32.42.28c1.23.83,2.82.43,3.59-.9.32-.54.4-1.49.18-2.13-.15-.44-.15-.45.06-.61.3-.23.57-.31.61-.17.02.06.16.26.32.43.73.83,1.92,1.1,2.88.66,1.01-.46,1.58-1.34,1.57-2.41v-.63s.39-.1.39-.1c.22-.06.43-.11.48-.13s.18.2.29.47c.29.7.59,1.06,1.16,1.37,1.37.75,3.2,0,3.68-1.51.13-.43.18-.49.35-.45.1.03.34.05.53.05h.34s.05.64.05.64c.08,1.06.67,1.88,1.61,2.22,1.25.46,2.64-.08,3.26-1.25,0-.01.25.08.53.2l.52.23-.18.47c-.64,1.67.57,3.35,2.41,3.35.68,0,.94-.08,1.53-.45l.35-.23.38.38.38.38-.29.36c-.83,1.04-.75,2.38.21,3.34.6.6,1.21.83,2.04.75.31-.03.65-.08.76-.11.16-.05.23.03.43.45l.25.5-.2.09c-.74.34-1.28,1.22-1.28,2.07,0,.7.14,1.16.53,1.68.41.57,1.26,1,1.95,1h.48l.06.35c.11.69.09.75-.33.87-.99.27-1.64.86-1.89,1.72-.38,1.29.29,2.69,1.52,3.16.44.17.43.14.3.75l-.1.45h-.76c-.66,0-.82.03-1.18.25-.78.46-1.22,1.16-1.28,2.04-.06.8.19,1.48.75,2.06l.46.47-.16.29c-.34.63-.34.63-.84.4-.68-.31-1.51-.28-2.16.07-.87.47-1.33,1.26-1.35,2.29,0,.51.04.71.27,1.19l.28.57-.36.32c-.2.18-.38.32-.4.32s-.18-.13-.35-.29c-.98-.92-2.4-.94-3.4-.04-.73.65-1.04,1.65-.83,2.6.06.27.05.29-.45.48l-.51.2-.27-.48c-.67-1.18-2.08-1.59-3.32-.96-.78.4-1.19.95-1.38,1.84l-.12.59-.61.03-.61.03-.04-.45Z"/>
        <g id="g2904">
          <path id="path3659" class="st17" d="M16.19,22.48l-.67,1.62c2.77.99,1.93,5.25-1.38,4.54"/>
          <path id="path3661" class="st17" d="M14.29,28.68l-.03,1.76c2.94-.11,3.73,4.17.39,4.73"/>
          <path id="path3663" class="st17" d="M14.66,35.05l.51,1.68c2.77-.99,4.82,2.84,1.81,4.39"/>
          <path id="path3665" class="st17" d="M17.1,40.88l.98,1.46c2.36-1.76,5.44,1.29,3.02,3.67"/>
          <path id="path3667" class="st17" d="M21.2,45.89l1.45,1c1.55-2.5,5.54-.78,4.15,2.31"/>
          <path id="path3669" class="st17" d="M26.72,48.97l1.69.49c.67-2.87,5-2.51,4.67.87"/>
          <path id="path3671" class="st17" d="M33.06,50.2l1.75-.09c-.3-2.93,3.91-4,4.7-.71"/>
          <path id="path3673" class="st17" d="M39.3,49.26l1.64-.64c-1.2-2.69,2.46-5.02,4.24-2.14"/>
          <path id="path3675" class="st17" d="M44.94,46.46l1.32-1.16c-2.05-2.11.58-5.56,3.24-3.47"/>
          <path id="path3677" class="st17" d="M49.3,41.88l.89-1.52c-2.61-1.35-1.2-5.46,1.99-4.31"/>
          <path id="path3679" class="st17" d="M51.99,36.18l.36-1.72c-2.91-.46-2.86-4.81.53-4.72"/>
          <path id="path3681" class="st17" d="M52.75,29.87l-.26-1.74c-2.88.58-4.36-3.51-1.15-4.61"/>
          <path id="path2889" class="st17" d="M51.19,23.76l-.77-1.58c-2.58,1.42-5.21-2.03-2.48-4.05"/>
          <path id="path2891" class="st17" d="M47.91,18.35l-1.26-1.23c-1.95,2.21-5.59-.16-3.7-2.98"/>
          <path id="path2893" class="st17" d="M43.02,14.33l-1.59-.76c-1.13,2.72-5.34,1.66-4.47-1.62"/>
          <path id="path2895" class="st17" d="M37.07,12.19l-1.74-.21c-.2,2.94-4.53,3.28-4.75-.11"/>
          <path id="path2897" class="st17" d="M30.78,11.99l-1.7.44c.88,2.81-3.03,4.7-4.46,1.63"/>
          <path id="path2901" class="st17" d="M24.81,13.95l-1.35.83c1.62,2.46-1.61,5.36-3.84,2.8"/>
          <path id="path2899" class="st17" d="M19.88,17.58l-1.06,1.18c2.26,1.89,0,5.59-2.87,3.78"/>
        </g>
      </g>
      <g id="g5072">
        <path id="path5068" class="st22" d="M32.62,47.64c0-.12-.04-.39-.1-.6-.4-1.52-2.05-2.27-3.54-1.61-.42.18-.97.72-1.2,1.14-.1.2-.22.35-.26.34s-.22-.08-.41-.15c-.26-.09-.34-.15-.31-.22.02-.05.08-.31.14-.58.32-1.56-.88-2.97-2.54-2.97-.63,0-1.33.29-1.77.72l-.2.2-.36-.31c-.2-.17-.36-.33-.36-.34s.1-.16.22-.33c.39-.54.47-.82.47-1.55,0-.59-.02-.7-.19-1.03-.37-.73-1.14-1.3-1.94-1.44-.45-.08-1.13,0-1.47.18l-.19.1-.24-.47c-.13-.26-.23-.47-.21-.48.01,0,.15-.11.32-.22.89-.61,1.3-1.5,1.14-2.47-.22-1.29-1.28-2.21-2.56-2.21h-.4s-.04-.31-.04-.31c-.07-.53-.08-.52.34-.61,1.06-.23,1.79-.98,1.98-2.01.09-.47-.02-1.15-.26-1.65-.29-.6-.97-1.17-1.55-1.3l-.2-.04.11-.53c.06-.29.13-.54.14-.56.02-.02.16,0,.32.04,1.54.36,2.95-.7,3.06-2.3.06-.81-.18-1.44-.75-2.04l-.29-.3.31-.47c.17-.26.32-.47.33-.47s.15.09.31.2c1.29.87,2.95.4,3.67-1.04.28-.57.33-1.25.12-1.91-.08-.25-.17-.48-.21-.5-.13-.08-.06-.16.37-.46l.44-.31.13.19c.52.73,1.17,1.13,1.9,1.19.8.06,1.52-.21,2.08-.81.5-.53.68-.97.7-1.73v-.62s.46-.11.46-.11c.25-.06.48-.11.52-.12.04,0,.11.14.15.3.41,1.62,2.12,2.38,3.64,1.62.63-.32,1.21-1.05,1.33-1.69l.04-.21.54.07.54.07v.66c.01.95.26,1.5.89,2,1.13.89,2.91.69,3.69-.42l.2-.28.47.27c.26.15.48.28.5.29.01.01-.07.24-.2.5-.21.44-.22.53-.22,1.1,0,.53.02.68.17.99.63,1.33,2.24,1.9,3.54,1.23l.46-.23.36.43.36.43-.38.37c-.22.22-.46.53-.57.76-.17.36-.19.46-.19,1.05s.02.69.21,1.08c.56,1.13,1.79,1.71,2.99,1.41.14-.03.16,0,.33.53.1.31.16.59.13.61-.03.02-.22.1-.42.16-1.57.51-2.15,2.38-1.2,3.83.34.52,1.19,1.07,1.66,1.07.19,0,.22.1.17.63l-.05.48-.31-.04c-.99-.12-2.04.47-2.46,1.37-.6,1.26-.15,2.73,1.04,3.44.11.06.1.09-.07.39-.1.18-.19.34-.2.35s-.19-.04-.4-.13c-.28-.11-.53-.15-.94-.15-.6,0-.93.1-1.47.47-.56.39-1.03,1.34-1.03,2.09,0,.48.22,1.15.49,1.51.13.16.23.31.23.32s-.15.15-.33.3l-.33.28-.33-.31c-.18-.17-.5-.39-.7-.48-.32-.15-.46-.18-1-.18-.58,0-.66.02-1.07.22-.87.43-1.43,1.25-1.47,2.17-.02.31,0,.64.07.84l.09.34-.49.19-.49.19-.18-.38c-.25-.53-.69-.98-1.19-1.21-.36-.17-.48-.19-1.03-.19s-.67.02-1.06.21c-.83.39-1.34,1.06-1.51,1.95l-.08.44h-.96v-.22Z"/>
        <g id="g2979">
          <path id="path2945" class="st19" d="M49.99,27.74l-.51-1.5c-2.75,1.04-4.87-2.75-1.88-4.36"/>
          <path id="path2947" class="st19" d="M47.44,21.9l-1-1.22c-2.21,1.94-5.53-.87-3.3-3.42"/>
          <path id="path2949" class="st19" d="M43,17.36l-1.38-.78c-1.36,2.61-5.47,1.19-4.31-1.99"/>
          <path id="path2951" class="st19" d="M37.25,14.75l-1.57-.21c-.3,2.93-4.64,3.13-4.74-.26"/>
          <path id="path2953" class="st19" d="M30.98,14.45l-1.54.37c.79,2.83-3.17,4.61-4.51,1.49"/>
          <path id="path2955" class="st19" d="M25.01,16.44l-1.3.9c1.75,2.36-1.32,5.44-3.68,3"/>
          <path id="path2957" class="st19" d="M20.11,20.5l-.89,1.31c2.49,1.57.74,5.55-2.34,4.13"/>
          <path id="path2959" class="st19" d="M17.01,26.02l-.31,1.55c2.9.48,2.83,4.83-.56,4.72"/>
          <path id="path2961" class="st19" d="M16.31,32.16l.19,1.44c2.88-.6,4.39,3.47,1.19,4.6"/>
          <path id="path2963" class="st19" d="M17.87,38.19l.66,1.29c2.51-1.54,5.3,1.79,2.67,3.93"/>
          <path id="path2965" class="st19" d="M21.37,43.29l1.09.95c1.75-2.37,5.59-.33,3.95,2.64"/>
          <path id="path2967" class="st19" d="M26.39,46.73l1.36.5c.79-2.83,5.1-2.3,4.63,1.06"/>
          <path id="path2969" class="st19" d="M32.38,48.08h1.45c-.21-2.92,4.04-3.86,4.72-.54"/>
          <path id="path2971" class="st19" d="M38.57,47.31l1.35-.53c-1.28-2.65,2.32-5.09,4.18-2.26"/>
          <path id="path2973" class="st19" d="M43.97,44.47l1.06-.99c-2.17-1.99.26-5.59,3.04-3.65"/>
          <path id="path2975" class="st19" d="M47.82,39.88l.68-1.28c-2.7-1.17-1.57-5.37,1.69-4.44"/>
          <path id="path2977" class="st19" d="M50.01,34.05l.16-1.44c-2.94-.1-3.43-4.42-.05-4.75"/>
        </g>
      </g>
      <g id="g5134">
        <g id="g5131">
          <path id="path5129" class="st22" d="M31.63,45.25c-.02-.44-.07-.66-.2-.95-.6-1.3-2.35-1.82-3.63-1.07-.32.18-.86.76-.96,1-.07.19-.14.19-.53-.03-.21-.12-.31-.21-.29-.28.02-.05.09-.27.17-.47.15-.42.18-1.16.07-1.58-.04-.13-.19-.43-.34-.65-.79-1.17-2.45-1.47-3.64-.67l-.25.17-.16-.19c-.4-.48-.4-.44.01-.88.8-.83.95-1.83.43-2.87-.24-.48-.73-.95-1.25-1.19-.41-.19-1.35-.27-1.7-.15l-.2.07-.11-.37c-.06-.21-.11-.4-.12-.44,0-.03.14-.12.34-.19,1.53-.51,2.15-2.17,1.39-3.67-.29-.56-.97-1.06-1.69-1.25l-.35-.09.04-.23c.02-.13.04-.29.04-.37,0-.13.03-.14.48-.11.88.06,1.53-.2,2.1-.83.98-1.09.78-2.96-.41-3.78l-.26-.18.21-.3c.11-.17.21-.31.21-.32,0,0,.18.07.4.18s.56.23.77.27c1.05.22,2.2-.4,2.7-1.46.19-.4.2-.48.2-1.12,0-.65-.01-.72-.22-1.11-.12-.23-.19-.44-.16-.47s.21-.15.41-.29c.34-.22.37-.23.44-.12.21.29.7.73.99.89,1.2.65,2.81.09,3.45-1.19.2-.4.21-.48.21-1.1v-.67l.48-.09c.47-.09.48-.09.48.04,0,.18.16.7.3.96.2.39.67.82,1.1,1.02.37.17.48.19,1.1.19s.73-.02,1.07-.18c.68-.32,1.29-1.03,1.45-1.71.04-.16.06-.17.26-.12.12.03.34.09.49.13.15.04.26.1.24.14-.11.18-.16.88-.1,1.25.16.88.57,1.42,1.36,1.81.48.24.53.25,1.16.25.61,0,.69-.02,1.09-.21.23-.11.57-.35.74-.52.22-.22.33-.29.39-.25.05.03.22.17.39.31l.31.24-.25.43c-.31.54-.42.96-.38,1.52.06.85.65,1.68,1.46,2.07.56.27,1.35.31,1.96.1.24-.08.45-.17.47-.21.02-.04.15.14.29.38l.25.45-.34.2c-.47.27-.84.66-1.07,1.12-.17.35-.19.45-.19,1.05,0,.6.02.69.21,1.08.43.88,1.24,1.44,2.16,1.5l.48.03v1.08l-.38.04c-1.4.16-2.31,1.23-2.24,2.64.05.94.6,1.81,1.4,2.19.18.09.34.16.35.17.02.02-.26.77-.31.83-.02.03-.23-.01-.45-.08-1.56-.49-3.09.55-3.26,2.22-.03.25-.01.54.04.76.1.42.41,1.04.63,1.24l.16.15-.31.31-.31.31-.35-.28c-.61-.49-.88-.59-1.64-.59-.57,0-.7.02-1.02.17-1.07.5-1.72,1.69-1.51,2.76.13.67.14.64-.23.78-.18.07-.38.14-.44.16-.08.03-.16-.07-.3-.38-.49-1.04-1.53-1.6-2.63-1.43-1.15.18-1.98.98-2.19,2.13l-.08.43h-.87l-.03-.57Z"/>
        </g>
        <g id="g3773">
          <path id="path3016" class="st17" d="M37.46,17.36l-1.39-.35c-.4,2.92-4.74,2.97-4.73-.42"/>
          <path id="path3018" class="st17" d="M31.36,16.75l-1.41.27c.88,2.81-3.03,4.7-4.46,1.63"/>
          <path id="path3020" class="st17" d="M25.52,18.87l-1.19.8c1.9,2.25-.98,5.51-3.49,3.23"/>
          <path id="path3022" class="st17" d="M21.08,22.87l-.78,1.21c2.63,1.31,1.29,5.44-1.92,4.35"/>
          <path id="path3024" class="st17" d="M18.57,28.3l-.2,1.42c2.94.08,3.47,4.39.1,4.75"/>
          <path id="path3026" class="st17" d="M18.62,34.39l.39,1.38c2.72-1.11,4.94,2.62,2,4.31"/>
          <path id="path3028" class="st17" d="M21.11,39.92l.9,1.12c2.08-2.08,5.57.5,3.51,3.2"/>
          <path id="path3030" class="st17" d="M25.56,44.06l1.28.65c1.04-2.75,5.28-1.84,4.52,1.47"/>
          <path id="path3032" class="st17" d="M31.34,45.99l1.43.07c-.18-2.94,4.07-3.84,4.72-.51"/>
          <path id="path3034" class="st17" d="M37.5,45.38l1.35-.49c-1.31-2.64,2.26-5.12,4.15-2.31"/>
          <path id="path3036" class="st17" d="M42.84,42.47l1.02-1.01c-2.3-1.84-.1-5.59,2.8-3.84"/>
          <path id="path3038" class="st17" d="M46.53,37.53l.51-1.34c-2.85-.74-2.39-5.06.98-4.65"/>
          <path id="path3041" class="st17" d="M47.84,31.39l-.07-1.43c-2.91.46-4.22-3.68-.97-4.65"/>
          <path id="path3043" class="st17" d="M46.64,25.32l-.7-1.26c-2.4,1.71-5.41-1.43-2.93-3.74"/>
          <path id="path3045" class="st17" d="M42.82,20.41l-1.13-.89c-1.55,2.5-5.54.78-4.15-2.32"/>
        </g>
      </g>
      <g id="g5189">
        <path id="path5187" class="st23" d="M33.69,43.39c-.21-.91-.77-1.65-1.52-1.98-.22-.1-.33-.11-.79-.11-.59,0-.8.05-1.23.33-.46.29-.97.92-1.14,1.4-.03.08-.08.15-.11.13-.03-.01-.2-.07-.38-.13-.18-.06-.33-.11-.34-.12s.03-.19.08-.41c.24-1.02.03-1.95-.57-2.55-.55-.55-1.38-.77-2.18-.56-.35.09-.93.39-1.18.6l-.18.16-.31-.3-.31-.3.27-.33c.31-.39.47-.66.62-1.03.09-.23.11-.36.11-.86,0-.58,0-.59-.17-.93-.47-.96-1.53-1.44-2.73-1.24-.52.08-.47.11-.61-.35q-.15-.49-.07-.49c.12,0,.65-.25.97-.45.58-.38.99-.98,1.11-1.61.15-.83-.28-1.76-1.06-2.28-.27-.18-.84-.44-.98-.44-.2,0-.2-.05-.09-.67.09-.5.12-.58.18-.56.04.02.32.04.62.05.42.02.62,0,.88-.06.82-.2,1.4-.7,1.69-1.44.13-.35.13-1.1-.02-1.52-.13-.39-.39-.79-.73-1.14l-.25-.26.33-.41c.18-.23.35-.41.37-.41s.15.08.28.18c.57.44,1.36.69,1.96.64.6-.05,1.04-.25,1.42-.66.63-.67.82-1.79.47-2.72l-.08-.21.49-.21c.27-.12.49-.21.5-.2,0,0,.09.18.2.39.42.84,1.14,1.35,2.01,1.44.91.09,1.91-.49,2.35-1.35.13-.25.29-.79.29-.96,0-.14,0-.14.22-.11.12.01.37.04.55.05l.33.03v.57c0,.44.03.63.1.89.33,1.07,1.11,1.7,2.13,1.7.73,0,1.27-.24,1.89-.85.23-.22.42-.41.43-.41.02,0,.82.53.89.58,0,0-.08.21-.2.45-.27.54-.35.88-.35,1.38,0,.46.07.77.26,1.12.41.77,1.4,1.25,2.32,1.11.39-.06.91-.21,1.06-.32.05-.03.11-.06.12-.06s.16.22.32.5c.26.45.28.5.21.55-.87.51-1.38,1.12-1.58,1.87-.26.99.26,2.04,1.25,2.53.39.19.88.32,1.22.32h.2v1.19l-.43.03c-1.03.07-1.87.58-2.25,1.37-.15.32-.17.4-.19.82-.02.41,0,.51.1.83.07.2.2.49.31.63.2.3.62.69.92.87.11.06.2.13.2.14,0,.02-.42.87-.45.9,0,.01-.18-.06-.38-.15-.52-.23-1-.33-1.47-.3-1.26.09-2.12,1-2.12,2.25,0,.48.1.89.33,1.35.1.2.17.36.17.36,0,0-.17.11-.36.24l-.35.24-.08-.14c-.05-.08-.25-.3-.44-.5-.74-.74-1.66-1-2.54-.73-.32.1-.7.37-.97.68-.41.48-.6,1.05-.61,1.78,0,.52.04.47-.51.53l-.33.03-.08-.36Z"/>
        <g id="g3983">
          <path id="path3955" class="st17" d="M35.11,19.2l-1.43-.12c-.16,2.98-3.89,3.44-4.6.36"/>
          <path id="path3959" class="st17" d="M29.05,19.65l-1.32.57c1.27,2.7-1.41,4.89-3.89,2.49"/>
          <path id="path3961" class="st17" d="M23.85,22.85l-.89,1.12c2.39,1.79,1.05,4.98-2.26,4.02"/>
          <path id="path3963" class="st17" d="M20.8,28.22l-.26,1.41c2.95.46,3.27,3.91-.11,4.61"/>
          <path id="path3965" class="st17" d="M20.58,34.13l.44,1.37c2.81-1,4.73,1.88,2.1,4.11"/>
          <path id="path3967" class="st17" d="M23.14,39.41l.99,1.04c2.09-2.13,5.08-.37,3.68,2.78"/>
          <path id="path3969" class="st17" d="M27.71,42.98l1.36.46c.88-2.85,4.34-2.67,4.55.77"/>
          <path id="path3971" class="st17" d="M33.42,44.01l1.42-.19c-.48-2.94,2.69-4.32,4.42-1.34"/>
          <path id="path3973" class="st17" d="M39.07,42.47l1.19-.8c-1.74-2.42.5-5.07,3.37-3.15"/>
          <path id="path3975" class="st17" d="M43.51,38.4l.66-1.28c-2.69-1.29-2-4.68,1.44-4.39"/>
          <path id="path3977" class="st17" d="M45.45,32.58l-.02-1.44c-2.98.12-3.96-3.2-.79-4.55"/>
          <path id="path3979" class="st17" d="M44.42,26.53l-.71-1.25c-2.55,1.55-5.02-.88-2.89-3.59"/>
          <path id="path3981" class="st17" d="M40.6,21.77l-1.19-.8c-1.58,2.53-4.88,1.47-4.2-1.92"/>
        </g>
      </g>
      <g id="g5224">
        <path id="path5222" class="st23" d="M34.8,41.18c-.32-1.16-1.18-1.87-2.25-1.87-.47,0-.76.06-1.14.24-.62.3-1.21,1.02-1.35,1.67-.02.08-.05.14-.07.14-.09,0-.54-.11-.57-.14-.02-.02,0-.19.07-.38.13-.44.15-1.14.03-1.53-.24-.78-.94-1.42-1.74-1.58-.39-.08-1.09-.03-1.43.1-.27.1-.6.3-.87.52l-.13.1-.26-.26-.26-.26.39-.39c.26-.26.44-.49.54-.69.72-1.44-.1-3.09-1.72-3.42-.31-.06-.87-.07-1.11-.01-.05.01-.09-.1-.17-.38l-.1-.4.34-.03c1.26-.11,2.21-1.1,2.21-2.3,0-.98-.5-1.82-1.36-2.28-.16-.09-.3-.16-.31-.16,0,0,.05-.18.13-.39l.14-.38.26.13c.6.3,1.38.39,1.91.21,1.38-.46,2.04-1.98,1.45-3.35-.07-.15-.16-.33-.21-.4-.05-.07-.08-.13-.08-.15s.16-.15.37-.3l.37-.28.22.34c.74,1.17,2,1.55,3.19.96.37-.18.83-.66,1.04-1.08.18-.36.33-1.05.3-1.3-.02-.12-.01-.13.29-.15.17-.02.37-.03.45-.03h.15l-.03.34c-.08.98.43,1.95,1.24,2.36.41.21.7.28,1.13.28.68,0,1.26-.25,1.77-.76.18-.18.36-.38.4-.43l.07-.1.4.24.4.24-.18.25c-.64.89-.72,1.97-.19,2.8.3.48.83.86,1.43,1.03.48.14,1.34.07,1.74-.14.12-.06.12-.06.31.32l.19.38-.32.13c-.65.26-1.13.69-1.38,1.22-.17.36-.23.62-.23,1.03,0,.66.23,1.22.7,1.69.4.41.86.64,1.5.77l.13.03-.03.34c-.02.18-.03.34-.04.35,0,0-.19-.02-.42-.06-1.53-.27-2.85.78-2.86,2.3,0,.69.21,1.25.69,1.77l.28.3-.21.26-.21.26-.28-.26c-1.01-.94-2.45-.95-3.37,0-.56.57-.81,1.35-.69,2.16.03.18.05.36.06.41,0,.07-.06.11-.3.19l-.3.1-.09-.31Z"/>
        <g id="g3855">
          <path id="path3771" class="st17" d="M27.91,22.71l-1.07.79c1.83,2.26-.69,5.2-3.27,3.19"/>
          <path id="path3835" class="st17" d="M23.74,26.75l-.48,1.24c2.75.93,2.19,4.76-1.06,4.44"/>
          <path id="path3837" class="st17" d="M22.4,32.41l.31,1.29c2.8-.79,4.51,2.67,1.65,4.25"/>
          <path id="path3839" class="st17" d="M24.41,37.82l.94.94c1.97-2.14,5.24-.07,3.63,2.77"/>
          <path id="path3841" class="st17" d="M28.87,41.34l1.3.28c.49-2.86,4.36-2.91,4.55.35"/>
          <path id="path3843" class="st17" d="M34.53,41.83l1.26-.42c-1.03-2.72,2.28-4.72,4.1-2.01"/>
          <path id="path3845" class="st17" d="M39.65,39.36l.84-1.03c-2.32-1.74-.6-5.21,2.39-3.89"/>
          <path id="path3847" class="st17" d="M42.66,34.51l.14-1.32c-2.9-.19-3.35-4.03-.13-4.56"/>
          <path id="path3849" class="st17" d="M42.51,28.69l-.59-1.19c-2.55,1.4-4.99-1.6-2.56-3.78"/>
          <path id="path3851" class="st17" d="M39.15,23.79l-1.14-.68c-1.38,2.56-5.06,1.37-4.2-1.78"/>
          <path id="path3853" class="st17" d="M33.72,21.48l-1.32.1c.34,2.89-3.36,4.03-4.46.96"/>
        </g>
      </g>
    </g>
  </g>
  <g id="g4803">
    <path id="path4673" class="st7" d="M39.4,6.31c.14-.24.18-.4.24-.92l.07-.63,1.12.12c.97.1,1.11.13,1.07.21-.26.48-.4,1.11-.32,1.54l.04.22-.26-.07c-.31-.09-1.81-.25-1.99-.21-.12.03-.12.02.04-.26h0Z"/>
    <path id="path4681" class="st21" d="M38.7,6.83c1-.13,2.35-.02,3.26.37"/>
    <path id="path4683" class="st21" d="M39.34,4.37c.89.38,2.15.45,3.02.37"/>
  </g>
  <path id="path3485" class="st15" d="M45.31,4.86c-4.45-2.52-5.16,4.73-.48,3.08,1.5-.53,2.68-.12,3.45.24,4.91,2.33,4.98-5.47.19-3.1-.77.38-2.19.33-3.16-.22Z"/>
  <path id="path3487" class="st8" d="M44.45,6.4c-.05.46-.47.79-.92.73-.46-.05-.78-.47-.73-.93.05-.46.47-.79.92-.73.45.05.78.47.73.93"/>
  <path id="path3489" class="st8" d="M50.9,6.72c-.05.46-.47.79-.92.73-.46-.05-.78-.47-.73-.93.05-.46.47-.79.92-.73.45.05.78.47.73.93"/>
  <g id="g4819">
    <path id="path4687" class="st0" d="M26.85,6.49l-.6-.68,1.53-.24c.98-.29,1.4-.68,1.39-.6l.23,2.02c-.69-.08-1.65.79-2.64.82-.16-.45.19-.92.1-1.33Z"/>
    <path id="path4695" class="st21" d="M26.56,8.13c.92-.51,2.28-.94,3.33-.96"/>
    <path id="path4697" class="st21" d="M26.11,5.71c1.03-.01,2.28-.46,3.1-.87"/>
  </g>
  <g id="g4808">
    <path id="path4675" class="st15" d="M32.55,4.32c-4.73-1.94-4.51,5.34-.08,3.11,1.42-.71,2.65-.46,3.45-.2,5.17,1.68,4.25-6.06-.2-3.1-.72.48-2.13.6-3.17.18Z"/>
    <path id="path4677" class="st8" d="M31.88,5.96c0,.46-.36.84-.82.85-.46,0-.83-.37-.84-.83,0-.46.36-.84.82-.85.46,0,.83.37.84.83"/>
    <path id="path4679" class="st8" d="M38.32,5.46c0,.46-.36.84-.82.85-.46,0-.83-.37-.84-.83,0-.46.36-.84.82-.85.46,0,.83.37.84.83"/>
  </g>
  <g id="g4835">
    <path id="path4701" class="st5" d="M16.26,14.24l-1.59-.76,1.36-1.24c.68-.69,1.02-1.25,1.06-1.16.21.5,1.15,1.02,1.54,1.23.44.09-1.89,1.77-2.19,2.13-.06.11-.06.11-.18-.2h0Z"/>
    <path id="path4709" class="st9" d="M16.23,15.11c.53-.86,1.77-2.1,2.64-2.58"/>
    <path id="path4711" class="st9" d="M14.32,13.4c.85-.46,2.45-2.04,2.93-2.77"/>
  </g>
  <g id="g4830">
    <path id="path4689" class="st13" d="M19.86,8.34c-5.11.14-1.97,6.71,1.18,2.88,1.01-1.23,2.23-1.49,3.08-1.58,5.41-.55,1.44-7.26-1.44-2.75-.46.73-1.71,1.41-2.82,1.45Z"/>
    <path id="path4691" class="st8" d="M19.92,10.1c.19.42,0,.92-.41,1.1-.42.19-.91,0-1.1-.42-.19-.42,0-.92.41-1.1.42-.19.91,0,1.1.42"/>
    <path id="path4693" class="st8" d="M25.61,7.05c.19.42,0,.92-.41,1.1-.42.19-.91,0-1.1-.42-.19-.42,0-.92.41-1.1.42-.19.91,0,1.1.42"/>
  </g>
  <g id="g4846">
    <path id="path4715" class="st6" d="M10.48,24.95c-.2-.18-.36-.26-.85-.41l-.6-.19.34-1.07c.29-.93.35-1.06.42-1,.42.35,1.01.61,1.45.62h.22s-.12.25-.12.25c-.15.29-.6,1.73-.6,1.91,0,.13,0,.12-.25-.09h0Z"/>
    <path id="path4723" class="st20" d="M10.85,25.74c.08-1.01.45-2.31,1.01-3.12"/>
    <path id="path4725" class="st20" d="M8.56,24.63c.55-.8.86-2.02.96-2.89"/>
  </g>
  <path id="path4703" class="st10" d="M10.7,18.91c-4.22,2.89,1.97,6.71,2.55,1.78.19-1.58,1.07-2.46,1.74-2.99,4.25-3.39-2.72-6.88-2.7-1.54,0,.86-.67,2.11-1.59,2.74Z"/>
  <path id="path4705" class="st8" d="M11.7,20.37c.39.25.5.77.25,1.15-.25.38-.77.49-1.16.24-.39-.25-.5-.77-.25-1.15.25-.38.77-.49,1.16-.24"/>
  <path id="path4707" class="st8" d="M14.83,14.72c.39.25.5.77.25,1.15-.25.38-.77.49-1.16.24-.39-.25-.5-.77-.25-1.15.25-.38.77-.49,1.16-.24"/>
  <g id="g4862">
    <path id="path4729" class="st4" d="M10.81,36.85c-.27-.06-.44-.05-.94.06l-.62.13-.24-1.1c-.21-.95-.22-1.09-.14-1.08.54.1,1.18.03,1.57-.18l.19-.1v.27c.03.33.35,1.8.44,1.95.06.11.06.11-.26.04h0Z"/>
    <path id="path4737" class="st14" d="M11.52,37.35c-.43-.91-.75-2.23-.67-3.21"/>
    <path id="path4739" class="st14" d="M8.98,37.52c.09-.97-.25-2.18-.59-2.99"/>
  </g>
  <path id="path4717" class="st13" d="M7.87,31.42c-2.31,4.56,4.96,4.93,3.1.33-.6-1.47-.25-2.67.08-3.46,2.09-5.02-5.7-4.72-3.1-.04.42.76.43,2.17-.07,3.17Z"/>
  <path id="path4719" class="st8" d="M9.45,32.22c.46.03.81.43.78.89-.03.46-.43.8-.9.77-.46-.03-.81-.43-.78-.89.03-.46.43-.8.89-.77"/>
  <path id="path4721" class="st8" d="M9.47,25.76c.46.03.81.43.78.89-.03.46-.43.8-.9.77-.46-.03-.81-.43-.78-.89.03-.46.43-.8.89-.77"/>
  <g id="g4873">
    <path id="path4757" class="st2" d="M16.39,47.07c-.24.12-.37.24-.69.65l-.39.5-.88-.69c-.76-.6-.87-.7-.79-.74.48-.26.93-.73,1.09-1.14l.08-.2.18.2c.22.24,1.4,1.17,1.57,1.24.12.04.11.05-.17.2h0Z"/>
    <path id="path4765" class="st16" d="M17.26,47c-.92-.43-2-1.24-2.56-2.05"/>
    <path id="path4767" class="st16" d="M15.41,48.75c-.55-.8-1.59-1.52-2.36-1.92"/>
  </g>
  <g id="g4857">
    <path id="path4731" class="st11" d="M11.24,43.82c-.31,5.11,6.51,2.55,2.97-.93-1.13-1.11-1.29-2.36-1.3-3.2-.07-5.43-7.1-2.07-2.86,1.19.69.53,1.26,1.82,1.19,2.94Z"/>
    <path id="path4733" class="st8" d="M13.01,43.92c.44-.15.91.07,1.06.5.15.43-.08.91-.52,1.06-.44.15-.91-.07-1.06-.5-.15-.43.08-.91.52-1.06"/>
    <path id="path4735" class="st8" d="M10.46,37.98c.44-.15.91.07,1.06.5.15.43-.08.91-.52,1.06-.44.15-.91-.07-1.06-.5-.15-.43.08-.91.52-1.06"/>
  </g>
  <g id="g4884">
    <path id="path4771" class="st1" d="M27.2,54.56l-2.82-.91,1.28-1.47c.77.36,1.59.62,2.42.81l-.87,1.57Z"/>
    <path id="path4779" class="st16" d="M28.9,52.95c-1.16-.15-2.63-.59-3.52-1.14"/>
    <path id="path4781" class="st16" d="M27.34,54.83c-.86-.55-2.25-.92-3.25-1.08"/>
  </g>
  <path id="path4759" class="st10" d="M21.21,52.45c3.13,4.04,6.58-2.37,1.63-2.65-1.59-.09-2.52-.92-3.09-1.55-3.63-4.04-6.71,3.12-1.37,2.78.86-.06,2.15.54,2.83,1.43Z"/>
  <path id="path4761" class="st8" d="M22.6,51.36c.23-.4.73-.55,1.13-.32.4.23.54.74.31,1.14-.23.4-.73.55-1.13.32-.4-.23-.54-.74-.31-1.14"/>
  <path id="path4763" class="st8" d="M16.77,48.57c.23-.4.73-.55,1.13-.32.4.23.54.74.31,1.14-.23.4-.73.55-1.13.32-.4-.23-.54-.74-.31-1.14"/>
  <g id="g4783">
    <path id="path4785" class="st3" d="M40.19,55.72c-.16.22-.22.38-.32.89l-.13.62-1.1-.22c-.95-.19-1.23-.12-1.18-.19.24-.65.71-1.42.35-2.07.71.26,1.7.65,2.44.72.13-.01.12,0-.07.26h0Z"/>
    <path id="path4787" class="st12" d="M46.27,59.63c3.86,3.35,5.99-3.61,1.08-2.92-1.57.22-2.65-.41-3.33-.92-4.35-3.25-5.96,4.38-.8,3,.83-.22,2.21.11,3.06.84Z"/>
    <path id="path4789" class="st8" d="M47.42,58.29c.14-.44.61-.68,1.05-.54.44.14.67.62.53,1.06-.14.44-.61.68-1.05.54-.44-.14-.67-.62-.53-1.06"/>
    <path id="path4791" class="st8" d="M41.16,56.69c.14-.44.61-.68,1.05-.54.44.14.67.62.53,1.06-.14.44-.61.68-1.05.54-.44-.14-.67-.62-.53-1.06"/>
    <path id="path4793" class="st12" d="M40.94,55.27c-1.01.03-2.34-.2-3.21-.67"/>
    <path id="path4795" class="st12" d="M40.08,57.66c-.85-.46-2.1-.64-2.98-.65"/>
  </g>
  <g id="g5021">
    <path id="path4773" class="st10" d="M34.02,56.89c4.29,2.79,5.44-4.4.67-3.04-1.53.43-2.68-.05-3.43-.46-4.76-2.63-5.31,5.15-.38,3.08.8-.33,2.21-.19,3.14.42Z"/>
    <path id="path4775" class="st8" d="M34.98,55.41c.08-.46.51-.76.97-.68.45.08.75.52.67.97-.08.46-.51.76-.97.68-.45-.08-.75-.52-.67-.97"/>
    <path id="path4777" class="st8" d="M28.56,54.68c.08-.46.51-.76.97-.68.45.08.75.52.67.97-.08.46-.51.76-.97.68-.45-.08-.75-.52-.67-.97"/>
  </g>
</svg>