<?xml version="1.0" encoding="UTF-8"?>
<svg id="Layer_1" xmlns="http://www.w3.org/2000/svg" version="1.1" viewBox="0 0 64 64">
  <!-- Generator: Adobe Illustrator 30.0.0, SVG Export Plug-In . SVG Version: 2.1.1 Build 123)  -->
  <path d="M44.04,17.94c.34-.45.91-.76,1.52-.77,1.06-.01,1.92.83,1.94,1.89.01,1.06-.83,1.92-1.89,1.94-1.06.01-1.92-.83-1.94-1.89,0-.44.11-.83.36-1.15M42.87,17.15c-.29.37-.63.7-1.09,1.09-.83.88-.24,1.08.07,1.32.92.69,2.69,2.45,3.32,3.39.5.89,1.43-.21,1.43-.21,0,0,2.63-2.92,4.78-.96,1.3,2.43,2.08,5,2.43,7.9.11.95.14,3.15.05,4.17-.32,3.57-1.4,6.82-3.26,9.8-.69.92-2.91,1.8-5.25-1.28-.84-.87-1.07-.28-1.32.02-.73.89-2.56,2.58-3.53,3.17-.91.46.15,1.43.15,1.43,0,0,2.81,2.8.76,4.85-.85.4-1.73.75-2.63,1.04-1.93.62-3.61.93-5.7,1.04-2.99.16-6.07-.34-8.97-1.45-.8-.31-2.37-1.08-3.31-1.62-.93-.67-1.88-2.9,1.15-5.31.85-.86.26-1.08-.04-1.32-.91-.71-2.64-2.51-3.24-3.47-.48-.9-1.43.18-1.43.18,0,0-2.72,2.88-4.82.87-1.15-2.28-1.87-4.73-2.19-7.4-.13-1.13-.1-4.06.05-5.18.43-3.08,1.41-5.92,2.94-8.45.67-.93,2.85-1.87,5.26,1.16.86.85,1.08.26,1.32-.04.71-.91,2.5-2.64,3.46-3.24.9-.48-.18-1.43-.18-1.43,0,0-.17-.15-.43-.47l-.03-.04c-.71-.86-1.83-2.61-.36-3.75,2-1.55,4.16-2.24,6.4-2.58,1.4-.21,2.07-.26,3.84-.24,1.76.02,3.31.22,5.12.7,1.77.46,3.56,1.2,5.2,2.13.8.55,1.64,2.16.1,4.14M25.76,4.76c-.11-.23-.23-.41-.27-.4-.03.01-.19.05-.34.09l-.28.07v.6c-.01.66-.1.99-.38,1.43-.49.75-1.49.75-2.27,0-.2-.19-.55-.67-.69-.93,0,0-.16.05-.35.13l-.34.14.08.35c.11.5.06,1.28-.11,1.66-.25.56-.74.84-1.34.77-.45-.05-.89-.3-1.36-.76l-.41-.41-.3.18c-.22.13-.29.2-.27.26.5,1.21.32,2.33-.44,2.75-.32.17-.88.17-1.33,0-.33-.13-.9-.49-1.07-.68-.1-.11-.1-.11-.37.11l-.27.23.16.26c.36.61.51,1.5.33,2-.19.53-.69.84-1.34.83-.35,0-.92-.16-1.12-.31-.03-.02-.17-.11-.31-.19l-.26-.15-.24.28-.24.28.2.24c.11.13.29.45.4.69.19.4.21.5.2.9,0,.36-.03.5-.13.69-.36.66-1.24.86-2.22.5-.26-.1-.52-.19-.56-.2-.06-.02-.14.07-.26.27l-.18.3.26.26c.72.72,1.01,1.61.72,2.23-.34.72-1.36.98-2.56.65-.15-.04-.16-.03-.3.28-.08.18-.13.34-.1.36.02.02.19.15.38.29.18.14.44.4.57.59.67.92.48,1.84-.46,2.26-.33.15-.4.16-1.07.15h-.71s-.1.38-.1.38c-.05.21-.09.39-.08.4,0,0,.17.09.35.18.43.21,1.01.76,1.19,1.13.52,1.06-.45,2.12-1.94,2.1-.34,0-.33,0-.4.48l-.04.29.22.04c.58.1,1.43.72,1.66,1.21.17.36.14.85-.07,1.19-.31.49-.92.84-1.69.98l-.33.06.03.25c.02.14.03.31.03.37,0,.11.05.13.46.22.6.12,1.09.37,1.41.72.48.52.49,1.07.04,1.72-.26.37-1.17.93-1.5.92-.08,0-.1.03-.08.1.01.05.04.23.06.38l.03.28.48.02c.32,0,.61.06.85.14,1.04.35,1.44,1.19.96,2.04-.19.35-.75.87-1.13,1.06-.15.08-.29.14-.3.15-.01,0,.03.17.1.35l.12.34.2-.04c.11-.02.41-.04.65-.03,1.01.01,1.73.49,1.84,1.22.04.28-.11.81-.32,1.13-.17.26-.56.64-.87.86l-.16.11.15.32c.11.24.18.32.24.29.36-.14.81-.2,1.3-.17.48.02.58.05.85.2.21.12.36.26.47.45.15.24.17.32.16.7,0,.37-.03.48-.19.79-.1.2-.33.52-.5.71-.17.19-.32.36-.32.38,0,.02.09.16.2.31l.2.27.27-.13c.66-.32,1.52-.39,2.01-.16.55.26.79.72.73,1.37-.05.51-.28,1.03-.7,1.58-.04.05.01.14.19.33l.24.25.18-.13c.5-.36,1.28-.61,1.76-.56.54.06,1.02.44,1.14.9.13.5.02,1.25-.27,1.84-.08.17-.14.31-.13.32.01,0,.14.11.29.22l.27.21.2-.19c.68-.64,1.7-.93,2.27-.63.29.15.59.52.68.84.13.47.06,1.25-.17,1.83-.02.05.05.13.18.21l.21.13.12-.16c.23-.33.74-.75,1.11-.93.91-.44,1.71-.09,2.01.86.07.24.09.42.06.87-.02.32-.05.63-.08.69-.03.11,0,.13.31.24.19.07.36.12.36.11,0,0,.08-.14.17-.29.25-.42.74-.91,1.07-1.06.81-.38,1.47-.14,1.87.69.2.41.21.47.23,1.07l.02.64.34.07c.26.05.35.05.37,0,.01-.04.12-.26.24-.49.43-.83,1.11-1.33,1.72-1.26.16.02.37.07.47.12.47.25.85.9.96,1.62.03.23.07.45.08.49.01.05.14.07.38.07h.36s.04-.24.04-.24c.02-.13.14-.44.27-.69.48-.97,1.25-1.35,2-.99.47.23.95.92,1.1,1.61l.06.29h.38s.38,0,.38,0l.04-.32c.1-.83.35-1.39.76-1.75.6-.52,1.28-.44,1.94.23.35.36.72.96.72,1.16,0,.06.03.09.1.07.05-.02.22-.06.37-.09l.27-.06-.03-.29c-.07-.62.17-1.46.53-1.88.67-.77,1.95-.41,2.65.75.22.37.2.36.67.17l.23-.1-.08-.39c-.05-.23-.07-.57-.05-.84.11-1.73,1.69-2.1,2.97-.7l.32.35.25-.16c.14-.09.28-.16.3-.17.03,0-.02-.23-.1-.5-.27-.84-.19-1.58.23-2.05.56-.62,1.51-.54,2.51.23l.34.27.27-.23.27-.23-.25-.51c-.22-.46-.25-.55-.26-1.01-.02-.58.07-.88.35-1.16.26-.26.48-.35.9-.38.46-.03.99.12,1.47.43.18.11.35.18.37.16.02-.02.15-.16.28-.31l.24-.26-.19-.24c-.55-.69-.75-1.43-.58-2.05.08-.29.51-.71.83-.8.5-.15,1.4-.02,1.94.27.15.08.15.07.34-.22l.19-.3-.37-.4c-.21-.22-.44-.54-.53-.73-.14-.29-.16-.39-.15-.82,0-.45.02-.51.18-.73.38-.53,1.21-.72,2.14-.51.24.06.44.09.45.08.03-.03.32-.6.32-.63,0-.01-.17-.15-.39-.32-.66-.5-1.01-1.08-1-1.65,0-.57.27-.93.88-1.21.32-.14.39-.15,1.05-.15h.71s.1-.32.1-.32c.05-.18.09-.33.08-.34-.01,0-.18-.1-.38-.21-.47-.25-.96-.72-1.14-1.09-.17-.36-.18-.81-.03-1.14.26-.55,1.11-.97,1.94-.97.18,0,.34-.02.35-.04.02-.02.05-.2.07-.39l.04-.34-.3-.1c-1.02-.34-1.6-.93-1.65-1.65-.06-.77.65-1.43,1.78-1.67l.43-.09-.04-.34c-.02-.19-.04-.35-.05-.36,0,0-.21-.06-.46-.11-.89-.19-1.51-.66-1.68-1.25-.15-.52,0-.95.47-1.42.25-.25,1.08-.68,1.29-.68.08,0,.09-.04.06-.32-.02-.18-.05-.35-.06-.39-.02-.04-.22-.08-.53-.11-.83-.07-1.47-.38-1.78-.86-.13-.2-.17-.42-.15-.63.04-.43.14-.79.54-1.18.24-.23.84-.64,1.04-.71.04-.01.02-.14-.07-.37l-.13-.35-.2.04c-.11.02-.42.04-.68.03-1.41-.03-2.15-1.02-1.58-2.12.17-.33.6-.8.94-1.03l.24-.14-.17-.36c-.14-.29-.14-.31-.18-.38-.99.22-1.13.3-1.56.23-.51-.08-.87-.29-1.11-.64-.15-.22-.17-.28-.16-.7,0-.57.15-.89.66-1.49l.35-.4-.24-.32c-.13-.18-.24-.33-.25-.35,0-.01-.19.05-.4.15-.93.41-1.78.37-2.27-.12-.54-.55-.47-1.48.18-2.4l.26-.37-.25-.25-.25-.25-.35.22c-1.15.73-2.25.62-2.68-.27-.14-.29-.15-.36-.12-.84.03-.47.05-.57.26-1l.23-.48-.28-.21-.28-.21-.38.31c-.52.41-.95.6-1.44.63-.7.03-1.18-.3-1.36-.96-.11-.39-.06-1.08.1-1.55.07-.18.12-.35.12-.36,0-.02-.14-.11-.31-.2l-.31-.17-.18.22c-.57.68-1.09.99-1.72,1.01-.47.02-.7-.07-1-.39-.32-.33-.44-.73-.42-1.39,0-.31.02-.65.03-.75.01-.18,0-.19-.27-.3-.15-.06-.3-.11-.32-.11-.02,0-.12.14-.21.31-.4.7-1.16,1.22-1.76,1.21-.86,0-1.39-.73-1.44-1.96l-.02-.6-.32-.05c-.17-.03-.34-.05-.36-.05-.03,0-.12.17-.21.38-.6,1.38-1.8,1.85-2.62,1.01-.33-.34-.64-1.08-.64-1.53,0-.25-.05-.29-.42-.34l-.34-.04-.07.32c-.16.72-.67,1.45-1.18,1.69-.82.39-1.71-.22-2.11-1.44-.08-.25-.18-.47-.21-.48-.03-.01-.2,0-.37.01l-.31.04v.25c0,.59-.26,1.27-.61,1.65-.36.4-.65.64-1.09.53-.52-.13-1.19-.69-1.55-1.43h0ZM21.24,17.71c.04.16.05.28.04.45,0,1.06-.87,1.9-1.93,1.89-1.06,0-1.9-.87-1.89-1.93,0-1.06.87-1.9,1.93-1.89.88,0,1.62.61,1.83,1.43l.02.05ZM18.15,42.7c1.06.01,1.9.87,1.89,1.93s-.87,1.9-1.93,1.89c-1.06-.01-1.9-.87-1.89-1.93s.87-1.9,1.93-1.89ZM44.37,44.23c1.06.03,1.88.92,1.85,1.97-.03,1.06-.92,1.88-1.97,1.85-1.06-.03-1.88-.92-1.85-1.97.03-1.06.92-1.88,1.97-1.85Z"/>
</svg>