<?xml version="1.0" encoding="UTF-8"?>
<svg id="Layer_1" xmlns="http://www.w3.org/2000/svg" version="1.1" viewBox="0 0 64 64">
  <!-- Generator: Adobe Illustrator 30.0.0, SVG Export Plug-In . SVG Version: 2.1.1 Build 123)  -->
  <defs>
    <style>
      .st0 {
        fill: #878489;
        fill-rule: evenodd;
        stroke-width: 1px;
      }

      .st0, .st1 {
        stroke-miterlimit: 1;
      }

      .st0, .st2 {
        stroke: #000;
      }

      .st1 {
        stroke: #3f3f3f;
        stroke-width: .68px;
      }

      .st1, .st2 {
        fill: #3f3f3f;
      }

      .st2 {
        stroke-width: 4px;
      }
    </style>
  </defs>
  <path id="path3411" class="st1" d="M11.23,15.6c.84-.43,1.41-.96,2.62-2.44l1.54-1.9,3.36,2.69,3.36,2.69-.76.33c-.92.4-3.23,2.93-3.72,4.06l-.35.81-3.57-2.86-3.57-2.86,1.08-.55Z"/>
  <path id="path3425" class="st0" d="M-7.9,1.89C-2.89,3.64-.66,7.17.58,9.72c7.94,16.32,24.41-3.85,6.97-7.67C4.73,1.43,1.15-1.67-.23-5.14"/>
  <path id="path3429" class="st2" d="M10.43,11.39c-1.1,1.09-2.86,1.08-3.94-.01-1.07-1.09-1.05-2.86.05-3.94,1.1-1.09,2.86-1.08,3.94.01,1.07,1.09,1.05,2.86-.05,3.94"/>
  <path id="path3431" class="st0" d="M8.9,15.96c3.05,1.45,6.65,4.19,8.51,6.92"/>
  <path id="path3433" class="st0" d="M15.12,10.18c1.81,2.68,5.25,5.13,7.83,6.49"/>
  <path id="path3409" class="st1" d="M43.28,43.88c.84-.42,1.35-.9,2.56-2.41,1.43-1.78,1.53-1.86,1.78-1.49.15.22,1.49,1.38,3,2.58l2.73,2.18-.79.33c-.61.25-1.15.78-2.41,2.35l-1.62,2.03-3.15-2.52-3.15-2.52,1.04-.52Z"/>
  <path id="path3497" class="st0" d="M31.59,23.11c-6.33-15.87-23.31,1.55-7.67,7.03,5.01,1.75,7.25,5.29,8.49,7.84,7.94,16.32,24.41-3.85,6.97-7.67-2.82-.62-6.4-3.72-7.79-7.19Z"/>
  <path id="path3499" class="st2" d="M26.11,25.31c-1.1,1.09-2.86,1.08-3.94-.01-1.07-1.09-1.05-2.86.05-3.94,1.1-1.09,2.86-1.08,3.94.01,1.07,1.09,1.05,2.86-.05,3.94"/>
  <path id="path3501" class="st2" d="M42.26,39.63c-1.1,1.09-2.86,1.08-3.94-.01-1.07-1.09-1.05-2.86.05-3.94,1.1-1.09,2.86-1.08,3.94.01,1.07,1.09,1.05,2.86-.05,3.94"/>
  <path id="path3503" class="st0" d="M40.72,44.21c3.05,1.45,6.65,4.19,8.51,6.92"/>
  <path id="path3505" class="st0" d="M46.94,38.43c1.81,2.68,5.25,5.13,7.83,6.49"/>
  <path id="path3509" class="st0" d="M62.99,51.25c-6.33-15.87-23.31,1.55-7.67,7.03,5.01,1.75,7.25,5.29,8.49,7.84,7.94,16.32,24.41-3.85,6.97-7.67-2.82-.62-6.4-3.72-7.79-7.19Z"/>
  <path id="path3511" class="st2" d="M57.51,53.45c-1.1,1.09-2.86,1.08-3.94-.01-1.07-1.09-1.05-2.86.05-3.94,1.1-1.09,2.86-1.08,3.94.01,1.07,1.09,1.05,2.86-.05,3.94"/>
</svg>