<?xml version="1.0" encoding="UTF-8"?>
<svg id="Layer_1" xmlns="http://www.w3.org/2000/svg" version="1.1" viewBox="0 0 64 64">
  <!-- Generator: Adobe Illustrator 30.0.0, SVG Export Plug-In . SVG Version: 2.1.1 Build 123)  -->
  <defs>
    <style>
      .st0 {
        stroke: #76828e;
      }

      .st0, .st1, .st2, .st3, .st4, .st5, .st6, .st7, .st8, .st9, .st10, .st11, .st12, .st13, .st14, .st15, .st16, .st17, .st18, .st19 {
        stroke-miterlimit: 1;
      }

      .st0, .st1, .st2, .st3, .st4, .st5, .st8, .st10, .st12, .st14, .st19 {
        stroke-width: .35px;
      }

      .st0, .st15, .st16, .st18 {
        fill: #76828e;
      }

      .st1, .st3, .st4, .st20, .st21, .st8, .st10, .st12, .st14 {
        stroke: #000;
      }

      .st1, .st7, .st8, .st19 {
        fill: #d4d4d4;
      }

      .st1, .st12 {
        fill-rule: evenodd;
      }

      .st2, .st11 {
        stroke: #3f3f3f;
      }

      .st2, .st11, .st12, .st14 {
        fill: #3f3f3f;
      }

      .st3, .st6 {
        fill: #878489;
      }

      .st4, .st20, .st21 {
        fill: none;
      }

      .st20 {
        stroke-width: 1.3px;
      }

      .st21 {
        stroke-width: 1.4px;
      }

      .st5, .st17 {
        fill: #a0afcd;
        stroke: #a0afcd;
      }

      .st6, .st18 {
        stroke: #878489;
        stroke-width: .03px;
      }

      .st7, .st13, .st17 {
        stroke-width: .03px;
      }

      .st7, .st19 {
        stroke: #d4d4d4;
      }

      .st9, .st13 {
        fill: #475361;
      }

      .st9, .st13, .st15, .st16 {
        stroke: #475361;
      }

      .st9, .st16 {
        stroke-width: .02px;
      }

      .st11 {
        stroke-width: .09px;
      }

      .st15 {
        stroke-width: .01px;
      }
    </style>
  </defs>
  <g id="g6200">
    <path id="path4219" class="st13" d="M21.29,30.96c-.13-.55-.33-1.03-.46-1.11-.19-.12-.3-.07-.36.18l-.05.25-.93.06c-.51.03-1.65.06-2.52.06-1.58,0-1.6,0-1.73-.21-.21-.32-.69-1.16-.75-1.98-.05-.73.32-1.12.57-1.37.84-.84,2.44-1.17,4.37-1.41,1.21-.15,2.95-.18,3.31-.21.37-.03.67.3,1.39,1.75l.3,1.02.04,1.49c-.06.7-.31,1.14-.37,1.24-.05.1-.22.59-.38.7-.26.19-.38.12-1.31.15l-1.02-.03-.1-.59Z"/>
    <path id="path4205" class="st11" d="M20.36,33.48c-.11-.77-.17-1.57.01-2.4l.38-.88.37.99c.22.8.03,2.7-.37,3.38-.24.19-.33-.67-.39-1.09Z"/>
    <path id="path4225" class="st15" d="M29.43,9.02c-.23-1.76-1.51-3.18-3.23-3.78-1.01-.45-2.41-.24-3.46-.08.86-.74,2.25-1.56,3.39-1.74.04-.03,1.16.37,1.55.48,1.56.45,2.84,1.12,3.53,2.29.71,1.22,1.01,2.67.56,4.1-.11.36-.56,1.22-.79,1.54-.25.35-.86.96-1.18,1.21-.54.36-1.64.71-2.22.58.2-.15,1.81-3.11,1.86-4.6Z"/>
    <path id="path4223" class="st15" d="M22.22,18.14c-.13-.03-.44-.14-.44-.14-.84-.28-1.65-.48-2.17-.98-.64-.6-.79-1.35-1.09-2.61-.05-.22-.13-.54-.17-.71l-.07-.31.86-2.09c.22-.87.79-1.1.76-1.84.06-.88.17-1.58.67-2.28.24-.34,1.14-1.35,1.52-1.56.7-.4,1.67-.58,2.5-.58.86,0,1.82.14,2.54.56,1.11.64,1.96,1.87,2.23,3.14.1.46-.03,1.36-.13,1.81-.3,1.14-1.23,2.44-2,3.34-.2.32-.46.85-.63,1.19-.73,1.27-.9,2.74-.9,2.74l.16,1.02s-2.55-.41-3.62-.68Z"/>
    <path id="path4217" class="st17" d="M23.96,26.92c-.59-1.24-.76-1.49-1.05-1.6-.28-.11-3.31.11-4.56.32-1.36.28-2.74.64-3.81,1.94.96-4.26,1.85-9.24,3.17-13.35l.57-.76.21.92c.11.51.33,1.16.47,1.45.43.87,1.25,1.56,2.37,2.02.33.13.87.27.87.3-.68.32-1.44.84-1.84,1.49-.39.78-.52,1.39-.58,2.81l.16,1.25.43.43,1.2-.02c.68,0,1.45.04,1.71.09.58.11,1.27.73,1.48,1.15.14.29.04.33-.05,1.35-.06.62-.11,1.39-.12,1.4-.01.01-.37-.69-.62-1.2h0Z"/>
    <path id="path3194" class="st4" d="M19.82,9.47l-2.47,5.48-2.82,11.76-.04,1.35c.14.93.23,1.9.77,2.56-.79,1.65-.56,3.19-.1,4.7l5.54-.31c-.4-1.36-.78-2.73.05-5.17"/>
    <path id="path3198" class="st4" d="M20.75,30c.74,1.65.62,3.25-.04,4.9"/>
    <path id="path4203" class="st11" d="M27.19,37.72c-.17-.05-.55-.11-.61-.18-.2-.19.44-.79,1.12-.67,1.41.25,1.74.65,1.16.92-.32.15-1.28.04-1.66-.07h0Z"/>
    <path id="path3251" class="st3" d="M45.63,47.54c1.76,1.91,1.74,4.99-.04,6.88-.63.67-1.43,1.12-2.3,1.31"/>
    <path id="path3247" class="st12" d="M43.65,37.46h-1.41s-12.89,11.01-12.89,11.01c-.47.58-.69,1.08-.64,1.48l-.06,3.09.97.06.19-.64.82.06"/>
    <path id="path3249" class="st12" d="M55.7,33.07l1.16,1.22c.34.47.23.95.06,1.42l-2.19,2.58-3.22-.71"/>
    <path id="path3200" class="st20" d="M28.7,36.91c.64.19.8.58.35.85-.45.28-1.34.34-1.98.15-.64-.19-.8-.58-.35-.85.44-.27,1.31-.34,1.95-.16"/>
    <path id="path4211" class="st18" d="M30.82,33.91s.03-.21.08-.46c.04-.25.08-.46.08-.48,0-.07-.6-.51-.98-.71-.57-.31-1.06-.43-1.7-.42-.69,0-1.26.16-2.02.55-.24.13-.45.23-.46.23s0-.21,0-.46c.06-1.27.06-1.94,0-2.3-.06-.42-.13-.72-.21-.87-.08-.16-.28-.32-.57-.47-.25-.12-.35-.26-.33-.35.04-.97.36-1.82.26-2.8-.04-.29-.6-.76-.72-.99.07,0,1.44.47,2.06.64,3.31.91,7.77,2.64,13.61,5.26l.8.36-.22.04c-.59.1-1.27.43-1.94.97-.24.19-.24.19-.31.13-.21-.17-.62-.28-1.35-.39-.48-.07-.6-.08-.98-.06-1.27.06-2.14.44-3.19,1.41-.21.19-.38.3-.93.61-.37.21-.75.42-.83.47-.09.05-.16.09-.16.08h0Z"/>
    <path id="path4199" class="st11" d="M35.64,34.38c-1.54-.58-3.37-1.07-3.05-1.08.51-.55,1.99-1.66,3.23-1.75.78-.01,2.09.22,2.33.39.1.07.19.67.37,1.72.14.82.25,1.9.27,1.98-.07.39-2.85-1.15-3.15-1.26h0Z"/>
    <path id="path3222" class="st1" d="M54.76,34.18l-1.62,2.4-3.4,1.99c-2.44,2-3.08,6.82-4.65,10.55.83,1.82.23,3.59-1.31,4.44l-1.83,7.26h-3.08l-7.26-4.96c-1.03-2.01-1.47-4.22-.84-6.79l12.85-11.65"/>
    <path id="path3202" class="st4" d="M26.39,37.36c-.47-.95-.65-2.8-.73-4.39,1.77-1.21,3.49-1.38,5.12.05-.26,1.74-.6,3.41-1.55,4.6"/>
    <path id="path4201" class="st11" d="M24.45,30.81c.19-.53-.34-2.42.37-2.11.93.57.88,1.6.76,2.36l-1.13-.25Z"/>
    <path id="path3204" class="st4" d="M24.51,28.48c.88.41.97.38,1.1,1.15.25,1.44-.08,2.01.05,3.29"/>
    <path id="path4085" class="st10" d="M43.65,57.98s-.23-.05-.4-.08l-.32-.05.22-.89c.24-.97.31-1.11.54-1.11.32,0,1.28-.57,1.83-1.1.72-.68,1.12-1.33,1.39-2.26.45-1.56.16-3.39-.73-4.58-.11-.15-.21-.32-.21-.38,0-.1,1.21-3.92,1.39-4.39.05-.13.12-.24.15-.24s.24.11.47.23l.42.23-.04.92c-.04.79-.02.98.14,1.33.18.41.58.79.98.91.12.04.47.09.78.12l.56.05.17.51.17.51-.21.17c-.12.09-.34.42-.49.74-.5,1.02-.36,2.07.38,2.79.18.18.44.37.59.43.22.1.25.15.21.37-.02.14-.07.43-.1.63l-.06.37h-.49c-.99,0-1.6.36-2,1.19-.19.39-.24.62-.25,1.11,0,.34.02.73.06.85.06.19.01.3-.29.68l-.36.45-.45-.24c-.38-.2-.56-.24-1.15-.24-.8,0-1.19.16-1.7.69-.26.27-.35.31-.7.31-.22,0-.44-.02-.49-.04h0Z"/>
    <path id="path3218" class="st1" d="M39.18,24.57l-2.13-3.04c-1-1.43.15-2.71,1.22-2.86,11.92-1.68,13.63,3.02,16.79,6.03"/>
    <path id="path4127" class="st0" d="M40.15,37.19l-.78-.05-.43-2.44c-.41-2.32-.42-2.45-.28-2.56.11-.08.21-.09.32-.03.22.12,1.57.38,2.87.57,1.52.21,4.68.15,6.13-.13,4-.75,5.21-2.38,3.32-4.49-.9-1.01-2.32-1.91-4.29-2.7-.46-.19-.79-.34-.73-.34.55,0,4.51.97,5.14,1.27.62.29,1.65,1.1,2.16,1.7.81.94,1.39,2.19,1.39,2.99,0,.31.02.34.22.34s.22-.03.22-.36c0-1.12-.87-2.73-2.07-3.83-1.05-.96-1.94-1.45-3.17-1.72-.32-.07-1.06-.24-1.64-.38l-1.05-.25.43-.28c.88-.56,2.74-1.15,3.64-1.15,1.11,0,2.19.48,3.2,1.43.82.77,1.56,1.87,1.89,2.82.25.72.25.75.16,1.68-.13,1.26-.32,2.16-.57,2.72-.44.97-1.85,2.29-3.46,3.26-2.39,1.43-3.61,1.76-7.09,1.91-2.19.1-4.14.1-5.54.01h0Z"/>
    <path id="path4087" class="st10" d="M46.01,24.55c-1.04-.16-2.71-.3-3.6-.3h-.78l-.53-.85c-.7-1.13-.81-1.36-.81-1.68,0-.5.15-.53,2.45-.53s2.87.07,3.53.4c.78.39,1.36,1.04,1.37,1.52,0,.16-.85,1.63-.91,1.57,0,0-.33-.06-.72-.12h0Z"/>
    <path id="path3255" class="st4" d="M40.58,55.44c-2.31-1.05-3.39-3.9-2.42-6.38.73-1.85,2.44-3.03,4.32-2.97"/>
    <path id="path4089" class="st10" d="M39.27,56.34c-.82-.46-2.02-1.77-2.52-2.74-.47-.94-.63-1.66-.63-2.84,0-1.82.44-2.87,1.74-4.16.9-.89,1.67-1.34,2.84-1.62,1.48-.36,1.79-.27,1.7.45l-.05.41-.49.06c-1.13.13-2.08.62-2.86,1.45-1.53,1.63-1.83,4.06-.75,6.15.35.67,1.11,1.5,1.71,1.85.53.31.55.71.05.97-.29.15-.5.16-.74.03h0Z"/>
    <path id="path4093" class="st2" d="M34.03,54.6c-1.55-.77-2.48-3.52-1.6-4.74.2-.28.76-.59,1.07-.59.4,0,.49.2.49,1.04,0,1.15.14,2.08.48,3.08.37,1.09.39,1.4.11,1.39-.11,0-.35-.08-.55-.18h0Z"/>
    <path id="path4107" class="st5" d="M42.64,32.59c-1.19-.12-3.32-.5-3.58-.64-.09-.05-.02-.13.26-.31.9-.57,1.58-.67,2.92-.43.38.07.72.1.75.06.1-.11.51-1.71.61-2.38.1-.64.06-2.75-.06-3.25-.05-.2-.18-.29-.84-.57l-.79-.33.6-.03c.33-.01,1.07.02,1.65.07.95.09,1.17.14,2.32.59,2.33.9,3.51,1.61,4.58,2.73,1.21,1.27,1.22,2.41.04,3.19-1.33.87-3.88,1.39-6.67,1.36-.82,0-1.63-.03-1.8-.04h0Z"/>
    <path id="path3206" class="st4" d="M30.51,34.31l2.1-1.18c1.45-1.43,2.47-1.64,3.81-1.62,1.1.13,1.84.31,1.83.57"/>
    <path id="path3210" class="st4" d="M40.55,24.46c3.08-.11,6.17.24,9.25,1.1,2.06.34,3.05,1.33,4.02,2.35,1.13,1.36,1.39,2.4,1.41,3.34"/>
    <path id="path3212" class="st4" d="M46.92,24.88c1.18-.83,2.57-1.5,4.44-1.78,1.5.05,2.54.56,3.34,1.31,1.21,1.03,2.17,2.56,2.4,3.97-.13,1.65-.25,3.17-.94,4.28-1,1.08-1.81,1.97-2.87,2.56-2.37,1.37-2.28,1.48-5.28,2.04-3.01.22-5.96.3-8.83.1l-.94-5.28"/>
    <path id="path3214" class="st4" d="M32.29,33.34l6.67,2.51"/>
    <path id="path3220" class="st4" d="M41.56,24.56l-1.27-2.03c-.34-.55-.56-1.56.68-1.57,4.08-.02,4.7-.06,5.85.68.89.57,1.25,1.41.94,1.88l-.89,1.36"/>
    <path id="path3224" class="st4" d="M42.27,47.87l.42-2.93-.52-.42c-6.97.43-8.51,8.56-2.93,12.07.48.15.91.05,1.25-.37l.47-2.4v-.57c-2.02-1.22-1.98-4.78.89-5.02l.42-.37Z"/>
    <path id="path3226" class="st14" d="M43.22,49.61c.66.5.82,1.47.36,2.18-.46.71-1.38.88-2.04.39-.66-.5-.82-1.47-.36-2.18.46-.71,1.37-.88,2.03-.39"/>
    <path id="path4129" class="st19" d="M42.12,30.75c-.14-.02-1.4-.55-2.8-1.16-5.02-2.22-7.74-3.31-10.98-4.36-2.78-.9-4.63-1.29-6.51-1.37-.77-.03-1.45-.08-1.51-.1-.17-.06-.16-2.08.01-2.81.25-1.06.78-1.86,1.49-2.23.55-.29,1.48-.24,2.84.15.6.17,1.45.4,1.9.49,2.34.5,5.5,1.62,9.86,3.48,2.11.78,3.41,1.2,5.43,2.33.85.37,1.23.57,1.28.7.04.1.1.55.13,1.01.07.98-.06,2.26-.33,3.22-.2.71-.23.73-.8.65h0Z"/>
    <path id="path3196" class="st4" d="M27.88,13.1c-.47.65-1.74,2.82-1.8,3.05-.36.71-.19,1.97-.17,2.81-1.95-.4-3.54-1.44-5.05.23-1.05,1.66-.85,2.58-.89,4.54l.37.32,2.87.04c1.93.6,1.64,1.54,1.57,2.46l-.26,3.08c-.04.68.06,1.38-1.04,1.93l-2.09.05"/>
    <path id="path3216" class="st4" d="M24.4,30.89l1.25.37"/>
    <path id="path3257" class="st4" d="M47.39,42.55l1.29.71c-.48,2.13,0,3.43,2.26,3.16l.45,1.35c-1.35,1-1.61,3.27.52,4.06l-.26,1.68c-2.13-.67-3.27,1.58-2.51,3.09l-.97,1.22c-1.18-1.02-2.7-.83-3.49.42"/>
    <path id="path3263" class="st21" d="M19.81,9.72c-.02-2.6,2.12-4.73,4.78-4.74,2.65-.02,4.82,2.08,4.84,4.69.02,2.6-2.12,4.73-4.78,4.74-.96,0-1.9-.27-2.7-.8"/>
    <path id="path3265" class="st12" d="M15.78,21.63h-.64l-.46,1.82h.64"/>
    <path id="path3269" class="st12" d="M14.87,24.82h-.64l-.46,1.82h.64"/>
    <path id="path3271" class="st12" d="M19.61,9.87l-1.09-.64-1,2.01,1.18.64"/>
    <path id="path3275" class="st4" d="M20.94,6.68c1.82-1.52,2.54-2.81,5.04-3.27,8.42.79,6.99,10.15,1.64,10.39"/>
    <path id="path2431" class="st4" d="M14.68,32.11l-3.46.09-.09-.91-2.55.18-1.18.82-.09,2.46,1.37,1,2.1.09v-.91h4.19"/>
    <path id="path4669" class="st4" d="M34.2,49.69c0,1.45,0,2.62.48,3.69.39.88.73,2.12-.77,1.43-.77-.36-1.19-1.06-1.55-1.67-.33-.56-.42-1.14-.48-1.84-.07-.91.14-1.54.77-1.96.67-.44,1.55-.36,1.55.36Z"/>
    <path id="path3208" class="st4" d="M25.67,18.97c5.1.82,12,4.24,17.65,6.59.39,2.16.12,3.94-.47,5.54-1.6-.33-2.6-.68-4.55,1.04"/>
    <path id="path3245" class="st4" d="M41.85,30.94c-6.12-2.78-14.05-6.24-19.01-6.84"/>
    <path id="path4209" class="st6" d="M40.34,55.09c-.41-.22-.85-.58-1.15-.93-1.02-1.18-1.41-2.78-1.07-4.32.13-.56.46-1.3.79-1.76.75-1.04,1.8-1.65,3.04-1.78.18-.02.34-.03.34-.02,0,0-.03.34-.08.74l-.1.72-.17.16c-.16.15-.18.16-.42.2-.3.05-.72.2-.97.35-.1.06-.26.19-.37.29-1,.91-1.07,2.67-.15,3.92.12.16.51.54.66.65.1.07.1.08.1.28,0,.17-.25,1.56-.28,1.6,0,0-.08-.03-.17-.07h0Z"/>
    <path id="path4213" class="st7" d="M29.29,37.01c-.07-.08-.5-.29-.54-.26-.02,0-.04,0-.05,0-.07-.11-1.08-.15-1.5-.05-.25.06-.5.16-.65.27-.05.04-.1.06-.1.06-.03-.03-.18-.58-.25-.9-.14-.65-.27-1.71-.31-2.63l-.02-.42.3-.18c1.49-.88,2.79-.9,4-.08.15.1.3.21.34.24l.07.06-.05.3c-.19,1.21-.46,2.24-.76,2.92-.13.29-.37.74-.4.74-.01,0-.05-.03-.08-.06h0Z"/>
    <path id="path3261" class="st8" d="M24.74,6.05c2.06.07,3.68,1.77,3.61,3.81-.07,2.04-1.79,3.64-3.86,3.57-2.06-.07-3.68-1.77-3.61-3.81.07-2.03,1.78-3.63,3.84-3.57"/>
    <path id="path3259" class="st12" d="M24.06,8.58l1.68.19.39,1.55-.97,1.03-1.61-.19-.45-1.35.97-1.22Z"/>
    <path id="path4229" class="st16" d="M15.18,34.64c-.36-1.48-.31-2.48.16-3.7.13-.34.13-.34.06-.47l-.08-.13.12.03c.17.05,3.66.03,4.37-.02.31-.02.57-.04.58-.03,0,0-.02.11-.05.23-.36,1.24-.36,2.57,0,3.9.06.21.1.39.1.39-.01,0-4.98.28-5.07.28-.05,0-.1-.11-.19-.47h0Z"/>
    <path id="path4231" class="st9" d="M9.29,35.6l-.55-.02-.63-.46-.63-.46.02-.48c.01-.26.04-.77.05-1.13l.03-.65.53-.37.53-.37.98-.07c.54-.04,1.06-.07,1.14-.07.18,0,.17-.02.24.61l.03.28,1.01-.03c.56-.02,1.35-.04,1.76-.05l.74-.03v.65c0,.59.12,1.47.22,1.74.02.06-.16.07-2.1.07h-2.13v.88h-.36c-.2-.01-.61-.03-.91-.04h0Z"/>
  </g>
</svg>