<?xml version="1.0" encoding="UTF-8"?>
<svg id="Layer_1" xmlns="http://www.w3.org/2000/svg" version="1.1" viewBox="0 0 64 64">
  <!-- Generator: Adobe Illustrator 30.0.0, SVG Export Plug-In . SVG Version: 2.1.1 Build 123)  -->
  <defs>
    <style>
      .st0 {
        stroke: #000;
        stroke-width: 4px;
      }

      .st0, .st1 {
        fill: none;
        stroke-linecap: round;
        stroke-linejoin: round;
      }

      .st1 {
        stroke: #ccc;
        stroke-width: 1.4px;
      }
    </style>
  </defs>
  <circle class="st1" cx="32.58" cy="32.19" r="5.23"/>
  <line class="st1" x1="32.58" y1="5.97" x2="35.88" y2="30"/>
  <line class="st1" x1="45.69" y1="9.49" x2="37.32" y2="30"/>
  <line class="st1" x1="55.28" y1="19.08" x2="36.13" y2="33.95"/>
  <line class="st1" x1="58.8" y1="32.19" x2="36.86" y2="35.2"/>
  <line class="st1" x1="55.28" y1="45.3" x2="32.83" y2="36.15"/>
  <line class="st1" x1="45.69" y1="54.9" x2="32.11" y2="37.4"/>
  <line class="st1" x1="32.58" y1="58.41" x2="29.28" y2="34.39"/>
  <line class="st1" x1="19.47" y1="54.9" x2="27.83" y2="34.39"/>
  <line class="st1" x1="6.36" y1="32.19" x2="28.3" y2="29.18"/>
  <line class="st1" x1="9.87" y1="19.08" x2="32.33" y2="28.24"/>
  <line class="st1" x1="19.47" y1="9.49" x2="33.05" y2="26.98"/>
  <line class="st1" x1="29.03" y1="30.43" x2="9.87" y2="45.3"/>
  <line class="st1" x1="25.67" y1="6.89" x2="28.77" y2="28.6"/>
  <line class="st1" x1="39.25" y1="6.83" x2="31.07" y2="27.18"/>
  <line class="st1" x1="51.04" y1="13.56" x2="33.78" y2="27.1"/>
  <line class="st1" x1="57.88" y1="25.29" x2="36.17" y2="28.38"/>
  <line class="st1" x1="57.94" y1="38.86" x2="37.59" y2="30.68"/>
  <line class="st1" x1="51.21" y1="50.65" x2="37.67" y2="33.39"/>
  <line class="st1" x1="39.48" y1="57.49" x2="36.39" y2="35.78"/>
  <line class="st1" x1="25.91" y1="57.55" x2="34.09" y2="37.2"/>
  <line class="st1" x1="14.12" y1="50.82" x2="31.38" y2="37.29"/>
  <line class="st1" x1="7.28" y1="39.1" x2="28.99" y2="36"/>
  <line class="st1" x1="7.22" y1="25.52" x2="27.57" y2="33.7"/>
  <line class="st1" x1="13.95" y1="13.73" x2="27.48" y2="30.99"/>
  <circle class="st1" cx="32.58" cy="32.19" r="1.19"/>
  <circle class="st0" cx="32.58" cy="32.19" r="26.22"/>
</svg>